<?xml version="1.0" encoding="UTF-8"?>
<svg id="Layer_1" data-name="Layer 1" xmlns="http://www.w3.org/2000/svg" viewBox="-75.15 0 497.55 497.55">
  <defs>
    <style>
      .cls-1 {
        fill: none;
      }

      .cls-2 {
        fill: #dd231b;
      }
    </style>
  </defs>
  <path class="cls-2" d="M327.96,262.06l-.15.13v61.9c0,16.4-13.33,29.75-29.73,29.75h-61.9c-5.33,0-10.29-1.43-14.61-3.88l-69.56,69.59c4.54,6.74,7.2,14.89,7.2,23.54,0,11.61-4.66,22.13-12.26,29.75-7.6,7.6-18.14,12.26-29.75,12.26s-22.15-4.66-29.75-12.26c-7.6-7.62-12.26-18.14-12.26-29.75,0-23.22,18.81-42.16,42.14-42.16,8.86,0,16.99,2.71,23.73,7.31l69.52-69.52c-2.56-4.35-4.01-9.36-4.01-14.74v-61.9c0-6.8,2.33-13.14,6.24-18.16l-57.34-78.03H14.74V14.88h150.87v138.21l59.72,81.28c3.4-1.37,7.12-2.06,10.98-2.06h61.9c16.4,0,29.75,13.35,29.75,29.75Z"/>
  <line class="cls-1" x1="146.8" y1="413.46" x2="146.26" y2="413.99"/>
</svg>