
<?xml version="1.0" encoding="utf-8"?>
<!-- Generator: Adobe Illustrator 28.1.0, SVG Export Plug-In . SVG Version: 6.00 Build 0)  -->
<svg version="1.1" id="Layer_1" xmlns="http://www.w3.org/2000/svg" xmlns:xlink="http://www.w3.org/1999/xlink" x="0px" y="0px"
	 viewBox="0 0 993 993" style="enable-background:new 0 0 993 993;" xml:space="preserve">
<style type="text/css">
	.st0{clip-path:url(#SVGID_00000152231839161344089670000000795498014019484553_);}
	.st1{clip-path:url(#SVGID_00000182491607546183387250000011329140508165353401_);}
	
		.st2{clip-path:url(#SVGID_00000005242328968227044960000017074897793709388990_);fill:url(#SVGID_00000100382283800840070800000000798998599799366288_);}
</style>
<g>
	<g>
		<g>
			<defs>
				<rect id="SVGID_1_" x="-14" width="993" height="993"/>
			</defs>
			<clipPath id="SVGID_00000145774471977382256240000016140886753371244730_">
				<use xlink:href="#SVGID_1_"  style="overflow:visible;"/>
			</clipPath>
			<g style="clip-path:url(#SVGID_00000145774471977382256240000016140886753371244730_);">
				<defs>
					<path id="SVGID_00000133499138566053848190000009510585880437049791_" d="M224.92,0c-53.17,2.13-93.64,18.49-121.42,49.07
						C73.63,81.91,52.23,127.2,39.32,184.89c-9.16,43.31-15.47,92.84-18.97,148.67c-3.52,55.86-5.26,115.57-5.26,179.13
						c0,63.59,1.63,121.15,4.85,172.71c3.24,51.59,8.61,96.59,16.14,135.04c6.47,38.48,17.08,70.54,31.9,96.17
						c14.8,25.66,35.25,44.77,61.34,57.33c26.1,12.52,59.87,18.82,101.32,18.82c87.18,0,168.84-8.55,245.02-25.63
						c76.14-17.09,145.03-41.15,206.67-72.14c61.61-30.98,114.49-67.18,158.63-108.59c44.11-41.42,78.16-86.42,102.13-135.04
						C967.01,602.73,979,552.77,979,501.48c0-44.35-11.99-89.88-35.92-136.64c-23.96-46.76-58.13-91.9-102.54-135.47
						c-44.4-43.53-97.26-82.54-158.63-117.01c-61.36-34.44-129.57-61.83-204.65-82.15C408.85,11.73,336.29,1.64,259.6,0H224.92z"/>
				</defs>
				<use xlink:href="#SVGID_00000133499138566053848190000009510585880437049791_"  style="overflow:visible;fill:#1D1B4A;"/>
				<clipPath id="SVGID_00000008854950335296479630000008085749856434752184_">
					<use xlink:href="#SVGID_00000133499138566053848190000009510585880437049791_"  style="overflow:visible;"/>
				</clipPath>
			</g>
		</g>
	</g>
	<g>
		<g>
			<defs>
				<rect id="SVGID_00000030477912570435218170000016487017032690888108_" x="132.47" y="146.47" width="700.05" height="700.05"/>
			</defs>
			<clipPath id="SVGID_00000107549778439664676810000004075192300826048657_">
				<use xlink:href="#SVGID_00000030477912570435218170000016487017032690888108_"  style="overflow:visible;"/>
			</clipPath>
			<g style="clip-path:url(#SVGID_00000107549778439664676810000004075192300826048657_);">
				<defs>
					<path id="SVGID_00000173868359514892002520000009706973418781980328_" d="M308.93,655.38c-5.31-21.45-8.82-49.61-10.52-84.47
						c-1.71-34.83-2.56-76.74-2.56-125.71c0-21.84,0.85-42.65,2.56-62.44c1.7-19.77,4.26-37.18,7.68-52.26
						c3.42-16.94,8.55-30.12,15.37-39.54c6.83-9.4,15.94-14.14,27.33-14.14c39.83,0,76.92,4.53,111.26,13.56
						c34.33,9.06,65.17,21.11,92.48,36.16c27.32,15.08,50.74,31.93,70.28,50.58c19.54,18.65,34.44,37.66,44.68,57.06
						c10.25,19.4,15.36,37.77,15.36,55.08c0,19.59-4.37,39.84-13.1,60.74c-8.73,20.9-21.72,40.97-38.97,60.17
						c-17.28,19.22-38.62,36.37-64.03,51.43c-25.43,15.06-54.92,27.11-88.5,36.16c-33.58,9.04-71.24,13.54-112.98,13.54
						C337.19,711.31,318.41,692.67,308.93,655.38 M300.91,146.47c-37.49,1.5-66.02,13.03-85.6,34.59
						c-21.06,23.15-36.15,55.08-45.25,95.75c-6.46,30.53-10.91,65.45-13.37,104.81c-2.48,39.38-3.71,81.48-3.71,126.28
						c0,44.83,1.15,85.41,3.42,121.76c2.28,36.37,6.07,68.1,11.38,95.2c4.56,27.13,12.04,49.73,22.49,67.8
						c10.43,18.09,24.85,31.57,43.25,40.42c18.4,8.83,42.21,13.27,71.43,13.27c61.46,0,119.03-6.02,172.73-18.07
						c53.68-12.05,102.24-29.01,145.7-50.85c43.43-21.84,80.72-47.36,111.83-76.56c31.1-29.2,55.1-60.92,72-95.2
						c16.87-34.28,25.32-69.5,25.32-105.66c0-31.27-8.45-63.36-25.32-96.33c-16.89-32.97-40.98-64.79-72.29-95.5
						c-31.3-30.69-68.57-58.19-111.83-82.49c-43.26-24.28-91.35-43.59-144.27-57.91c-48.23-13.03-99.39-20.14-153.45-21.3H300.91z"
						/>
				</defs>
				<clipPath id="SVGID_00000036944734993117045020000013955077475271468961_">
					<use xlink:href="#SVGID_00000173868359514892002520000009706973418781980328_"  style="overflow:visible;"/>
				</clipPath>
				
					<linearGradient id="SVGID_00000086684959753331851150000008365348392643827340_" gradientUnits="userSpaceOnUse" x1="313.2454" y1="67.9923" x2="313.929" y2="67.9923" gradientTransform="matrix(756.4542 -756.4542 -756.4542 -756.4542 -185331.8438 289187.1875)">
					<stop  offset="0" style="stop-color:#6366F1"/>
					<stop  offset="0.0254" style="stop-color:#5074EF"/>
					<stop  offset="0.0734" style="stop-color:#3389ED"/>
					<stop  offset="0.121" style="stop-color:#1F99EB"/>
					<stop  offset="0.1679" style="stop-color:#12A2E9"/>
					<stop  offset="0.2128" style="stop-color:#0EA5E9"/>
					<stop  offset="0.481" style="stop-color:#8D8EF7"/>
					<stop  offset="0.6005" style="stop-color:#C084FC"/>
					<stop  offset="0.6238" style="stop-color:#C483F4"/>
					<stop  offset="0.8007" style="stop-color:#E279B8"/>
					<stop  offset="0.9311" style="stop-color:#F47393"/>
					<stop  offset="1" style="stop-color:#FB7185"/>
				</linearGradient>
				
					<polygon style="clip-path:url(#SVGID_00000036944734993117045020000013955077475271468961_);fill:url(#SVGID_00000086684959753331851150000008365348392643827340_);" points="
					-196.96,496.42 492.75,-193.3 1182.47,496.42 492.75,1186.13 				"/>
			</g>
		</g>
	</g>
</g>
</svg>